# xmcd
#
# Track frame offsets:
#	150
#	13180
#	24505
#	38811
#	50856
#	65090
#	76354
#	89462
#	100749
#	115090
#	125995
#	140758
#	154068
#	166937
#	179615
#	193201
#	206833
#	217272
#	230046
#	243404
#	255717
#	269532
#	280856
#	294297
#	307132
#	320853
#	333098
#	345810
#
# Disc length: 4780 seconds
#
# Revision: 1
# Processed by: cddbd v1.5.2PL0 Copyright (c) Steve Scherf et al.
# Submitted via: audiograbber 1.83.01
#
DISCID=bc12aa1c
DTITLE=Bill Johnson and his Musical Notes - 1947-1954
DYEAR=1900
DGENRE=Vocal
TTITLE0=You Didn't Have to Say I Love You (RCA, 1947)
TTITLE1=Pretty Eyed Baby (RCA, 1947)
TTITLE2=Half a Love (RCA, 1947)
TTITLE3=Leave it to Fate, Gate (RCA, 1947)
TTITLE4=For Once In Your Live (RCA, 1947)
TTITLE5=My Little Red Head (RCA, 1947)
TTITLE6=You're the Dream of a Lifetime (RCA, 1947)
TTITLE7=Chickasaw Limited (RCA, 1947)
TTITLE8=Let's be Sweethearts Again (RCA, 1947)
TTITLE9=Mama, Mama, Mama (RCA, 1947)
TTITLE10=So Tired (RCA, 1947)
TTITLE11=I Learned to Cry (RCA, 1947)
TTITLE12=All Dressed Up With a Broken Heart (RCA, 1948)
TTITLE13=My Baby Likes to Be-Bop (RCA, 1948)
TTITLE14=Elevator Boogie (RCA, 1948)
TTITLE15=Believe Me, Beloved (RCA, 1948)
TTITLE16=Say Something Nice About Me (RCA, 1948)
TTITLE17=How Would You Know (King, 1949)
TTITLE18=Roselle (King, 1949)
TTITLE19=I Love You More Each Day (King, 1949)
TTITLE20=I'd Give the World to Know How I Stand With You (Regal, 1951)
TTITLE21=When Your Hair has Turned to Silver (Tru-Blue, 1954)
TTITLE22=Don't You Think I Oughta Know (Harlem, 1947)
TTITLE23=Toy Piano Man [Bonnie Davis and the Piccadilly Pipers] (Columbia, 1950)
TTITLE24=I'm Peelin' Onions [Bonnie Davis and the Piccadilly Pipers] (Columbia, 1
TTITLE24=950)
TTITLE25=I Want My Baby [Bonnie Davis and the Piccadilly Pipers] (Coral, 1951)
TTITLE26=Out in the Cold Again [Bonnie Davis and the Piccadilly Pipers] (Coral, 1
TTITLE26=951)
TTITLE27=So Near and Yet So Far [Bonnie Davis and the Piccadilly Pipers] (Melmar,
TTITLE27=1953)
EXTD=
EXTT0=
EXTT1=
EXTT2=
EXTT3=
EXTT4=
EXTT5=
EXTT6=
EXTT7=
EXTT8=
EXTT9=
EXTT10=
EXTT11=
EXTT12=
EXTT13=
EXTT14=
EXTT15=
EXTT16=
EXTT17=
EXTT18=
EXTT19=
EXTT20=
EXTT21=
EXTT22=
EXTT23=
EXTT24=
EXTT25=
EXTT26=
EXTT27=
PLAYORDER=
